<svg width="24" height="25" viewBox="0 0 24 25" fill="none" xmlns="http://www.w3.org/2000/svg">
<path d="M8.84825 12.814V16.559" stroke="#75777E" stroke-width="1.5" stroke-linecap="round" stroke-linejoin="round"/>
<path d="M10.759 14.6867H6.9379" stroke="#A6A7AC" stroke-width="1.5" stroke-linecap="round" stroke-linejoin="round"/>
<path d="M15.3661 12.928H15.2591" stroke="#75777E" stroke-width="1.5" stroke-linecap="round" stroke-linejoin="round"/>
<path d="M17.1796 16.5026H17.0726" stroke="#A6A7AC" stroke-width="1.5" stroke-linecap="round" stroke-linejoin="round"/>
<path opacity="0.4" d="M8.07216 2.5C8.07216 3.24048 8.68464 3.84076 9.44018 3.84076H10.4967C11.6623 3.84492 12.6064 4.77026 12.6117 5.91266V6.58771" stroke="#75777E" stroke-width="1.5" stroke-linecap="round" stroke-linejoin="round"/>
<path fill-rule="evenodd" clip-rule="evenodd" d="M16.4283 22.4626C13.4231 22.5135 10.473 22.5114 7.57275 22.4626C4.3535 22.4626 2 20.1664 2 17.0113V12.3617C2 9.20662 4.3535 6.9104 7.57275 6.9104C10.4889 6.86055 13.4411 6.86159 16.4283 6.9104C19.6476 6.9104 22 9.20766 22 12.3617V17.0113C22 20.1664 19.6476 22.4626 16.4283 22.4626Z" stroke="#75777E" stroke-width="1.5" stroke-linecap="round" stroke-linejoin="round"/>
</svg>
